<svg xmlns="http://www.w3.org/2000/svg" xmlns:xlink="http://www.w3.org/1999/xlink" viewBox="0 0 660.4 660.4"><defs><style>.cls-1{fill:url(#linear-gradient);}.cls-2{fill:url(#linear-gradient-2);}.cls-3{fill:url(#linear-gradient-3);}</style><linearGradient id="linear-gradient" y1="330.2" x2="660.4" y2="330.2" gradientUnits="userSpaceOnUse"><stop offset="0" stop-color="#12ccff"/><stop offset="1" stop-color="#590be0"/></linearGradient><linearGradient id="linear-gradient-2" x1="119.58" y1="335.97" x2="531.58" y2="327.97" xlink:href="#linear-gradient"/><linearGradient id="linear-gradient-3" x1="117.02" y1="204.02" x2="529.02" y2="196.02" xlink:href="#linear-gradient"/></defs><title>mio-logo</title><g id="Layer_2" data-name="Layer 2"><g id="Layer_1-2" data-name="Layer 1"><path class="cls-1" d="M506.58,35A118.82,118.82,0,0,1,625.4,153.82V506.58A118.82,118.82,0,0,1,506.58,625.4H153.82A118.82,118.82,0,0,1,35,506.58V153.82A118.82,118.82,0,0,1,153.82,35H506.58m0-35H153.82A153.82,153.82,0,0,0,0,153.82V506.58A153.82,153.82,0,0,0,153.82,660.4H506.58A153.82,153.82,0,0,0,660.4,506.58V153.82A153.82,153.82,0,0,0,506.58,0Z"/><path class="cls-2" d="M362.34,224.09l-69.12,17.83c-6.82,2-11.45,4.18-13.65,6.6s-3.3,5.72-3.3,10.13a17.63,17.63,0,0,0,4.4,11.89c3.08,3.08,6.6,4.84,10.57,4.84,2.42,0,5.72-.66,10.35-2l28.62-7.48V399.55H305.76V327.78c0-13.43-4.84-24.44-14.75-32.8-7.26-6.38-17-9.47-28.84-9.47a49,49,0,0,0-17.61,3.3,67.91,67.91,0,0,0-16.73,10.13c-4.4-4.4-8.81-7.93-13.43-10.13a29.5,29.5,0,0,0-13.87-3.52,35.28,35.28,0,0,0-14.75,2.86c-4.18,2-8.81,5.5-14.09,10.57v-9H141.32c-7.7,0-13.21,1.54-16.51,4.4a16.21,16.21,0,0,0,0,23.12c3.08,3.08,8.15,4.4,15,4.4v77.93c-6.82,0-11.89,1.54-15,4.62A14.06,14.06,0,0,0,120,415.4a15.45,15.45,0,0,0,4.84,11.89c3.3,2.86,8.81,4.18,16.51,4.18h28.84c7.7,0,13.21-1.32,16.51-4.18a15.49,15.49,0,0,0,5.06-11.67,14.69,14.69,0,0,0-5.06-11.45c-3.3-3.08-8.15-4.62-15-4.62V335c5.28-7,9.47-11.67,13.21-13.87,3.74-2.42,7.26-3.74,11-3.74s6.38,1.1,8.15,3.08c2,1.76,2.86,5.06,2.86,9.91v101h30.6c7.7,0,13-1.32,16.29-4.18a15.29,15.29,0,0,0,4.84-11.67,14.51,14.51,0,0,0-4.84-11.45c-3.3-3.08-8.15-4.62-14.75-4.62V335c5.5-7.26,10.13-12.11,14.09-14.75a16.68,16.68,0,0,1,9.69-2.86c3.74,0,6.38.88,8.15,2.86s2.64,5.28,2.64,10.13v101H388.54c20-1.54,32.8-5.5,41.83-9.91a39.42,39.42,0,0,0,7.71,6.16c8.81,5.72,19.81,8.59,32.8,8.59,22.23,0,39.63-9.69,51.51-28.62,12.11-19.15,18.05-39,18.05-59.88V312.59a102.15,102.15,0,0,0-12.11-48.65c-7.93-15.19-16.51-25.76-25.54-31.26q-13.21-8.59-32.36-8.59c-22.45,0-39.63,9.69-51.73,28.84-11.89,19.15-17.83,39-17.83,59.66v35.22a104.37,104.37,0,0,0,10.57,46c-1.1.44-2,1.1-3.08,1.54-5.5,2.86-12.33,3.74-19.81,4.18h-26.2Zm108.09,32.14h2.2c-.88,40.95-5.28,71.33-12.55,90.48-5.72,15.19-13.21,25.76-21.57,31.26a78.32,78.32,0,0,1-5.72-30.16V312.59c0-17.61,4.62-32.58,13.87-44.47q9.25-11.89,23.78-11.89Zm33.68,30.38a77.45,77.45,0,0,1,4.18,26v35.22c0,17.61-4.62,32.58-13.87,44.47-6.16,7.92-14.09,11.89-23.56,11.89a35.33,35.33,0,0,1-11.23-1.76c13.87-10.13,24.22-25.76,31-44.25,7.26-19.15,11.45-42.71,13.43-71.55Z"/><path class="cls-3" d="M351.33,181.1a33.19,33.19,0,0,0-4.4.44l-20,5.5c-8.15,2.2-15,10.79-15,19.37s6.82,13.65,15,11.45l20-5.5c8.37-2.2,15-10.79,15-19.37,0-6.82-4.4-11.45-10.57-11.89Z"/></g></g></svg>