<svg
  id="Layer_1"
  data-name="Layer 1"
  xmlns="http://www.w3.org/2000/svg"
  xmlns:xlink="http://www.w3.org/1999/xlink"
  viewBox="0 0 1024 1024"
>
  <defs>
    <style>
      .cls-1 {
      fill: none;
      }
      .cls-2 {
      clip-path: url(#clip-path);
      }
      .cls-3 {
      fill: #12ccff;
      }
      .cls-4 {
      fill: #2a8cf5;
      }
      .cls-5 {
      fill: #414bea;
      }
      .cls-6 {
      fill: #590be0;
      }
      .cls-7 {
      fill: #fff;
      }
    </style>
    <clipPath id="clip-path">
      <rect
        class="cls-1"
        width="1024"
        height="1024"
        rx="238.5"
        ry="238.5"
      />
    </clipPath>
  </defs>
  <title>mio-logo-fluent</title>
  <g class="cls-2">
    <rect
      class="cls-3"
      x="1.37"
      y="-46.34"
      width="1019.95"
      height="344.37"
    />
    <rect
      class="cls-4"
      x="2.1"
      y="214.68"
      width="1019.95"
      height="325.47"
    />
    <rect
      class="cls-5"
      x="2.83"
      y="475.7"
      width="1019.95"
      height="306.57"
    />
    <rect
      class="cls-6"
      x="3.56"
      y="736.72"
      width="1019.95"
      height="287.67"
    />
  </g>
  <path
    class="cls-7"
    d="M566.06,336.36l-116.26,30c-11.48,3.33-19.25,7-23,11.11s-5.55,9.63-5.55,17a29.66,29.66,0,0,0,7.4,20c5.18,5.18,11.11,8.15,17.77,8.15,4.07,0,9.63-1.11,17.4-3.33L512,406.71V631.45H470.9V510.75c0-22.58-8.15-41.1-24.81-55.17-12.22-10.74-28.51-15.92-48.5-15.92A82.33,82.33,0,0,0,368,445.22c-9.26,3.7-18.88,9.63-28.14,17-7.4-7.4-14.81-13.33-22.58-17a49.61,49.61,0,0,0-23.33-5.92c-9.26,0-17.4,1.48-24.81,4.81-7,3.33-14.81,9.26-23.7,17.77V446.7H194.33c-13,0-22.21,2.59-27.77,7.4-5.55,5.18-8.15,11.48-8.15,19.25,0,8.14,2.59,14.44,8.15,19.62,5.18,5.18,13.7,7.4,25.18,7.4V631.45c-11.48,0-20,2.59-25.18,7.78-5.55,4.81-8.15,11.11-8.15,18.88,0,8.15,2.59,14.81,8.15,20,5.55,4.81,14.81,7,27.77,7h48.5c13,0,22.21-2.22,27.77-7a26,26,0,0,0,8.52-19.62,24.71,24.71,0,0,0-8.52-19.25c-5.55-5.18-13.7-7.78-25.18-7.78V523c8.89-11.85,15.92-19.62,22.21-23.32,6.29-4.07,12.22-6.29,18.51-6.29s10.74,1.85,13.7,5.18c3.33,3,4.81,8.52,4.81,16.66V685.13h51.46c13,0,21.84-2.22,27.4-7,5.55-5.18,8.15-11.85,8.15-19.62s-2.59-14.44-8.15-19.25c-5.55-5.18-13.7-7.78-24.81-7.78V523c9.26-12.22,17-20.36,23.7-24.8a28.06,28.06,0,0,1,16.29-4.81c6.29,0,10.74,1.48,13.7,4.81s4.44,8.89,4.44,17V685.13H610.11c33.69-2.59,55.17-9.26,70.35-16.66a66.3,66.3,0,0,0,13,10.37c14.81,9.63,33.32,14.44,55.17,14.44,37.39,0,66.64-16.29,86.64-48.13,20.36-32.21,30.36-65.53,30.36-100.71V485.2a171.8,171.8,0,0,0-20.36-81.82c-13.33-25.55-27.77-43.32-42.95-52.57q-22.21-14.44-54.43-14.44c-37.76,0-66.64,16.29-87,48.5-20,32.21-30,65.53-30,100.34v59.24a175.53,175.53,0,0,0,17.77,77.38c-1.85.74-3.33,1.85-5.18,2.59-9.26,4.81-20.73,6.29-33.32,7H566.06Zm181.79,54.06h3.7c-1.48,68.87-8.89,120-21.1,152.17-9.63,25.55-22.21,43.32-36.28,52.57a131.72,131.72,0,0,1-9.63-50.72V485.2c0-29.62,7.78-54.8,23.33-74.79q15.55-20,40-20Zm56.65,51.09a130.26,130.26,0,0,1,7,43.69v59.24c0,29.62-7.78,54.8-23.33,74.79-10.37,13.33-23.7,20-39.62,20a59.41,59.41,0,0,1-18.88-3c23.33-17,40.73-43.32,52.2-74.42,12.22-32.21,19.25-71.83,22.58-120.33Z"
  />
  <path
    class="cls-7"
    d="M547.54,264.06a55.83,55.83,0,0,0-7.4.74l-33.69,9.26c-13.7,3.7-25.18,18.14-25.18,32.58s11.48,23,25.18,19.25l33.69-9.26c14.07-3.7,25.18-18.14,25.18-32.58,0-11.48-7.4-19.25-17.77-20Z"
  />
</svg>